<svg xmlns="http://www.w3.org/2000/svg" xmlns:xlink="http://www.w3.org/1999/xlink" width="500" zoomAndPan="magnify" viewBox="0 0 375 374.999991" height="500" preserveAspectRatio="xMidYMid meet" version="1.0"><defs><g/><clipPath id="28b7d438dd"><path d="M 38 165 L 66 165 L 66 201.742188 L 38 201.742188 Z M 38 165 " clip-rule="nonzero"/></clipPath><clipPath id="6f183d044b"><path d="M 15.511719 151 L 52 151 L 52 179 L 15.511719 179 Z M 15.511719 151 " clip-rule="nonzero"/></clipPath></defs><rect x="-37.5" width="450" fill="#ffffff" y="-37.499999" height="449.999989" fill-opacity="1"/><rect x="-37.5" width="450" fill="#ffffff" y="-37.499999" height="449.999989" fill-opacity="1"/><g clip-path="url(#28b7d438dd)"><path fill="#e0defa" d="M 59.652344 201.445312 L 43.839844 201.445312 C 40.789062 201.445312 38.292969 198.949219 38.292969 195.898438 L 38.292969 188.222656 L 41.992188 188.222656 L 41.992188 195.898438 C 41.992188 196.914062 42.824219 197.746094 43.839844 197.746094 L 59.652344 197.746094 C 60.667969 197.746094 61.5 196.914062 61.5 195.898438 L 61.5 165.238281 L 65.199219 165.238281 L 65.199219 195.898438 C 65.199219 198.949219 62.722656 201.445312 59.652344 201.445312 Z M 59.652344 201.445312 " fill-opacity="1" fill-rule="nonzero"/></g><path fill="#4f46e5" d="M 41.992188 165.238281 L 38.292969 165.238281 L 38.292969 134.574219 C 38.292969 131.523438 40.789062 129.027344 43.839844 129.027344 L 59.652344 129.027344 C 62.703125 129.027344 65.199219 131.523438 65.199219 134.574219 L 65.199219 142.25 L 61.5 142.25 L 61.5 134.574219 C 61.5 133.558594 60.667969 132.726562 59.652344 132.726562 L 43.839844 132.726562 C 42.824219 132.726562 41.992188 133.558594 41.992188 134.574219 Z M 41.992188 165.238281 " fill-opacity="1" fill-rule="nonzero"/><g clip-path="url(#6f183d044b)"><path fill="#4f46e5" d="M 51.757812 178.699219 L 21.09375 178.699219 C 18.042969 178.699219 15.546875 176.203125 15.546875 173.152344 L 15.546875 157.339844 C 15.546875 154.289062 18.042969 151.792969 21.09375 151.792969 L 28.769531 151.792969 L 28.769531 155.492188 L 21.09375 155.492188 C 20.078125 155.492188 19.246094 156.324219 19.246094 157.339844 L 19.246094 173.152344 C 19.246094 174.167969 20.078125 175 21.09375 175 L 51.757812 175 Z M 51.757812 178.699219 " fill-opacity="1" fill-rule="nonzero"/></g><path fill="#e0defa" d="M 82.417969 178.699219 L 74.742188 178.699219 L 74.742188 175 L 82.417969 175 C 83.433594 175 84.265625 174.167969 84.265625 173.152344 L 84.265625 157.339844 C 84.265625 156.324219 83.433594 155.492188 82.417969 155.492188 L 51.757812 155.492188 L 51.757812 151.792969 L 82.417969 151.792969 C 85.46875 151.792969 87.964844 154.289062 87.964844 157.339844 L 87.964844 173.152344 C 87.964844 176.203125 85.46875 178.699219 82.417969 178.699219 Z M 82.417969 178.699219 " fill-opacity="1" fill-rule="nonzero"/><g fill="#7770ea" fill-opacity="1"><g transform="translate(97.776574, 175.740456)"><g><path d="M 16.75 -16.796875 L 5.9375 -16.796875 L 5.9375 -11.453125 L 15.609375 -11.453125 L 15.609375 -8.453125 L 5.9375 -8.453125 L 5.9375 -3 L 17.078125 -3 L 17.078125 0 L 2.609375 0 L 2.609375 -19.796875 L 16.75 -19.796875 Z M 16.75 -16.796875 "/></g></g></g><g fill="#7770ea" fill-opacity="1"><g transform="translate(120.560405, 175.740456)"><g><path d="M 23.53125 0 L 20.453125 0 L 20.421875 -14.796875 L 14.171875 -2.0625 L 11.984375 -2.0625 L 5.734375 -14.796875 L 5.734375 0 L 2.609375 0 L 2.609375 -19.796875 L 6.5625 -19.796875 L 13.09375 -6.640625 L 19.59375 -19.796875 L 23.53125 -19.796875 Z M 23.53125 0 "/></g></g></g><g fill="#7770ea" fill-opacity="1"><g transform="translate(150.9477, 175.740456)"><g><path d="M 3.984375 -17 C 6.003906 -18.914062 8.492188 -19.875 11.453125 -19.875 C 14.410156 -19.875 16.898438 -18.914062 18.921875 -17 C 20.941406 -15.09375 21.953125 -12.722656 21.953125 -9.890625 C 21.953125 -7.066406 20.941406 -4.6875 18.921875 -2.75 C 16.898438 -0.820312 14.410156 0.140625 11.453125 0.140625 C 8.492188 0.140625 6.003906 -0.820312 3.984375 -2.75 C 1.972656 -4.6875 0.96875 -7.066406 0.96875 -9.890625 C 0.96875 -12.722656 1.972656 -15.09375 3.984375 -17 Z M 11.484375 -16.890625 C 9.523438 -16.890625 7.847656 -16.210938 6.453125 -14.859375 C 5.054688 -13.515625 4.359375 -11.859375 4.359375 -9.890625 C 4.359375 -7.929688 5.054688 -6.269531 6.453125 -4.90625 C 7.859375 -3.539062 9.53125 -2.859375 11.46875 -2.859375 C 13.414062 -2.859375 15.078125 -3.539062 16.453125 -4.90625 C 17.835938 -6.269531 18.53125 -7.929688 18.53125 -9.890625 C 18.53125 -11.859375 17.835938 -13.515625 16.453125 -14.859375 C 15.078125 -16.210938 13.421875 -16.890625 11.484375 -16.890625 Z M 11.484375 -16.890625 "/></g></g></g><g fill="#4f46e5" fill-opacity="1"><g transform="translate(178.085163, 175.740456)"><g><path d="M 9.109375 -19.9375 C 11.671875 -19.9375 13.976562 -19.257812 16.03125 -17.90625 L 14.65625 -14.953125 C 12.632812 -16.179688 10.703125 -16.796875 8.859375 -16.796875 C 7.859375 -16.796875 7.066406 -16.613281 6.484375 -16.25 C 5.910156 -15.894531 5.625 -15.390625 5.625 -14.734375 C 5.625 -14.078125 5.890625 -13.515625 6.421875 -13.046875 C 6.953125 -12.585938 7.613281 -12.25 8.40625 -12.03125 C 9.195312 -11.8125 10.050781 -11.535156 10.96875 -11.203125 C 11.894531 -10.878906 12.753906 -10.53125 13.546875 -10.15625 C 14.335938 -9.789062 14.992188 -9.21875 15.515625 -8.4375 C 16.035156 -7.65625 16.296875 -6.707031 16.296875 -5.59375 C 16.296875 -3.863281 15.597656 -2.476562 14.203125 -1.4375 C 12.816406 -0.40625 11.023438 0.109375 8.828125 0.109375 C 7.316406 0.109375 5.851562 -0.171875 4.4375 -0.734375 C 3.019531 -1.296875 1.785156 -2.0625 0.734375 -3.03125 L 2.171875 -5.90625 C 3.171875 -4.988281 4.269531 -4.28125 5.46875 -3.78125 C 6.664062 -3.28125 7.800781 -3.03125 8.875 -3.03125 C 10.050781 -3.03125 10.960938 -3.238281 11.609375 -3.65625 C 12.253906 -4.082031 12.578125 -4.675781 12.578125 -5.4375 C 12.578125 -6.113281 12.3125 -6.679688 11.78125 -7.140625 C 11.257812 -7.597656 10.601562 -7.9375 9.8125 -8.15625 C 9.019531 -8.375 8.160156 -8.640625 7.234375 -8.953125 C 6.316406 -9.265625 5.460938 -9.59375 4.671875 -9.9375 C 3.878906 -10.289062 3.21875 -10.851562 2.6875 -11.625 C 2.15625 -12.394531 1.890625 -13.328125 1.890625 -14.421875 C 1.890625 -16.097656 2.550781 -17.4375 3.875 -18.4375 C 5.195312 -19.4375 6.941406 -19.9375 9.109375 -19.9375 Z M 9.109375 -19.9375 "/></g></g></g><g fill="#4f46e5" fill-opacity="1"><g transform="translate(199.907964, 175.740456)"><g><path d="M 19.421875 -19.796875 L 19.421875 -8.203125 C 19.421875 -5.617188 18.65625 -3.582031 17.125 -2.09375 C 15.601562 -0.601562 13.503906 0.140625 10.828125 0.140625 C 8.148438 0.140625 6.039062 -0.601562 4.5 -2.09375 C 2.96875 -3.582031 2.203125 -5.617188 2.203125 -8.203125 L 2.203125 -19.796875 L 5.546875 -19.796875 L 5.546875 -8.203125 C 5.546875 -6.546875 6.019531 -5.238281 6.96875 -4.28125 C 7.925781 -3.332031 9.222656 -2.859375 10.859375 -2.859375 C 12.484375 -2.859375 13.757812 -3.328125 14.6875 -4.265625 C 15.625 -5.210938 16.09375 -6.523438 16.09375 -8.203125 L 16.09375 -19.796875 Z M 19.421875 -19.796875 "/></g></g></g><g fill="#4f46e5" fill-opacity="1"><g transform="translate(225.744482, 175.740456)"><g><path d="M 2.609375 -19.796875 L 10.5 -19.796875 C 12.976562 -19.796875 14.898438 -19.207031 16.265625 -18.03125 C 17.640625 -16.851562 18.328125 -15.1875 18.328125 -13.03125 C 18.328125 -10.789062 17.640625 -9.050781 16.265625 -7.8125 C 14.898438 -6.582031 12.976562 -5.96875 10.5 -5.96875 L 5.9375 -5.96875 L 5.9375 0 L 2.609375 0 Z M 5.9375 -16.796875 L 5.9375 -8.96875 L 10.34375 -8.96875 C 13.53125 -8.96875 15.125 -10.296875 15.125 -12.953125 C 15.125 -15.515625 13.53125 -16.796875 10.34375 -16.796875 Z M 5.9375 -16.796875 "/></g></g></g><g fill="#4f46e5" fill-opacity="1"><g transform="translate(249.008825, 175.740456)"><g><path d="M 2.609375 -19.796875 L 10.5 -19.796875 C 12.976562 -19.796875 14.898438 -19.207031 16.265625 -18.03125 C 17.640625 -16.851562 18.328125 -15.1875 18.328125 -13.03125 C 18.328125 -10.789062 17.640625 -9.050781 16.265625 -7.8125 C 14.898438 -6.582031 12.976562 -5.96875 10.5 -5.96875 L 5.9375 -5.96875 L 5.9375 0 L 2.609375 0 Z M 5.9375 -16.796875 L 5.9375 -8.96875 L 10.34375 -8.96875 C 13.53125 -8.96875 15.125 -10.296875 15.125 -12.953125 C 15.125 -15.515625 13.53125 -16.796875 10.34375 -16.796875 Z M 5.9375 -16.796875 "/></g></g></g><g fill="#4f46e5" fill-opacity="1"><g transform="translate(272.273169, 175.740456)"><g><path d="M 3.984375 -17 C 6.003906 -18.914062 8.492188 -19.875 11.453125 -19.875 C 14.410156 -19.875 16.898438 -18.914062 18.921875 -17 C 20.941406 -15.09375 21.953125 -12.722656 21.953125 -9.890625 C 21.953125 -7.066406 20.941406 -4.6875 18.921875 -2.75 C 16.898438 -0.820312 14.410156 0.140625 11.453125 0.140625 C 8.492188 0.140625 6.003906 -0.820312 3.984375 -2.75 C 1.972656 -4.6875 0.96875 -7.066406 0.96875 -9.890625 C 0.96875 -12.722656 1.972656 -15.09375 3.984375 -17 Z M 11.484375 -16.890625 C 9.523438 -16.890625 7.847656 -16.210938 6.453125 -14.859375 C 5.054688 -13.515625 4.359375 -11.859375 4.359375 -9.890625 C 4.359375 -7.929688 5.054688 -6.269531 6.453125 -4.90625 C 7.859375 -3.539062 9.53125 -2.859375 11.46875 -2.859375 C 13.414062 -2.859375 15.078125 -3.539062 16.453125 -4.90625 C 17.835938 -6.269531 18.53125 -7.929688 18.53125 -9.890625 C 18.53125 -11.859375 17.835938 -13.515625 16.453125 -14.859375 C 15.078125 -16.210938 13.421875 -16.890625 11.484375 -16.890625 Z M 11.484375 -16.890625 "/></g></g></g><g fill="#4f46e5" fill-opacity="1"><g transform="translate(299.409901, 175.740456)"><g><path d="M 15.15625 0 L 11.53125 -6 C 11.34375 -5.976562 11.046875 -5.96875 10.640625 -5.96875 L 5.9375 -5.96875 L 5.9375 0 L 2.609375 0 L 2.609375 -19.796875 L 10.640625 -19.796875 C 13.160156 -19.796875 15.117188 -19.207031 16.515625 -18.03125 C 17.910156 -16.851562 18.609375 -15.1875 18.609375 -13.03125 C 18.609375 -11.445312 18.253906 -10.109375 17.546875 -9.015625 C 16.835938 -7.921875 15.828125 -7.125 14.515625 -6.625 L 18.953125 0 Z M 5.9375 -8.96875 L 10.640625 -8.96875 C 13.835938 -8.96875 15.4375 -10.296875 15.4375 -12.953125 C 15.4375 -15.515625 13.835938 -16.796875 10.640625 -16.796875 L 5.9375 -16.796875 Z M 5.9375 -8.96875 "/></g></g></g><g fill="#4f46e5" fill-opacity="1"><g transform="translate(324.087527, 175.740456)"><g><path d="M 16.125 -16.796875 L 9.84375 -16.796875 L 9.84375 0 L 6.5 0 L 6.5 -16.796875 L 0.25 -16.796875 L 0.25 -19.796875 L 16.125 -19.796875 Z M 16.125 -16.796875 "/></g></g></g><g fill="#a6a6a6" fill-opacity="1"><g transform="translate(99.103746, 196.999996)"><g><path d="M 8.3125 0 L 7.234375 0 L 7.21875 -5.234375 L 5.015625 -0.734375 L 4.234375 -0.734375 L 2.03125 -5.234375 L 2.03125 0 L 0.921875 0 L 0.921875 -7 L 2.3125 -7 L 4.625 -2.34375 L 6.9375 -7 L 8.3125 -7 Z M 8.3125 0 "/></g></g></g><g fill="#a6a6a6" fill-opacity="1"><g transform="translate(110.850096, 196.999996)"><g><path d="M 5.921875 -5.9375 L 2.09375 -5.9375 L 2.09375 -4.046875 L 5.515625 -4.046875 L 5.515625 -2.984375 L 2.09375 -2.984375 L 2.09375 -1.0625 L 6.046875 -1.0625 L 6.046875 0 L 0.921875 0 L 0.921875 -7 L 5.921875 -7 Z M 5.921875 -5.9375 "/></g></g></g><g fill="#a6a6a6" fill-opacity="1"><g transform="translate(119.907507, 196.999996)"><g><path d="M 6.984375 0 L 5.828125 0 L 2.09375 -5.015625 L 2.09375 0 L 0.921875 0 L 0.921875 -7 L 2.078125 -7 L 5.828125 -1.96875 L 5.828125 -7 L 6.984375 -7 Z M 6.984375 0 "/></g></g></g><g fill="#a6a6a6" fill-opacity="1"><g transform="translate(130.324374, 196.999996)"><g><path d="M 5.703125 -5.9375 L 3.484375 -5.9375 L 3.484375 0 L 2.296875 0 L 2.296875 -5.9375 L 0.09375 -5.9375 L 0.09375 -7 L 5.703125 -7 Z M 5.703125 -5.9375 "/></g></g></g><g fill="#a6a6a6" fill-opacity="1"><g transform="translate(138.612079, 196.999996)"><g><path d="M 5.4375 -1.578125 L 1.90625 -1.578125 L 1.234375 0 L 0.015625 0 L 3.09375 -7 L 4.3125 -7 L 7.375 0 L 6.109375 0 Z M 4.984375 -2.625 L 3.671875 -5.734375 L 2.34375 -2.625 Z M 4.984375 -2.625 "/></g></g></g><g fill="#a6a6a6" fill-opacity="1"><g transform="translate(148.489165, 196.999996)"><g><path d="M 2.09375 -1.0625 L 5.125 -1.0625 L 5.125 0 L 0.921875 0 L 0.921875 -7 L 2.09375 -7 Z M 2.09375 -1.0625 "/></g></g></g><g fill="#a6a6a6" fill-opacity="1"><g transform="translate(161.40603, 196.999996)"><g><path d="M 6.984375 0 L 5.8125 0 L 5.8125 -2.90625 L 2.09375 -2.90625 L 2.09375 0 L 0.921875 0 L 0.921875 -7 L 2.09375 -7 L 2.09375 -3.953125 L 5.8125 -3.953125 L 5.8125 -7 L 6.984375 -7 Z M 6.984375 0 "/></g></g></g><g fill="#a6a6a6" fill-opacity="1"><g transform="translate(171.812909, 196.999996)"><g><path d="M 5.921875 -5.9375 L 2.09375 -5.9375 L 2.09375 -4.046875 L 5.515625 -4.046875 L 5.515625 -2.984375 L 2.09375 -2.984375 L 2.09375 -1.0625 L 6.046875 -1.0625 L 6.046875 0 L 0.921875 0 L 0.921875 -7 L 5.921875 -7 Z M 5.921875 -5.9375 "/></g></g></g><g fill="#a6a6a6" fill-opacity="1"><g transform="translate(180.870323, 196.999996)"><g><path d="M 5.4375 -1.578125 L 1.90625 -1.578125 L 1.234375 0 L 0.015625 0 L 3.09375 -7 L 4.3125 -7 L 7.375 0 L 6.109375 0 Z M 4.984375 -2.625 L 3.671875 -5.734375 L 2.34375 -2.625 Z M 4.984375 -2.625 "/></g></g></g><g fill="#a6a6a6" fill-opacity="1"><g transform="translate(190.747409, 196.999996)"><g><path d="M 2.09375 -1.0625 L 5.125 -1.0625 L 5.125 0 L 0.921875 0 L 0.921875 -7 L 2.09375 -7 Z M 2.09375 -1.0625 "/></g></g></g><g fill="#a6a6a6" fill-opacity="1"><g transform="translate(198.585296, 196.999996)"><g><path d="M 5.703125 -5.9375 L 3.484375 -5.9375 L 3.484375 0 L 2.296875 0 L 2.296875 -5.9375 L 0.09375 -5.9375 L 0.09375 -7 L 5.703125 -7 Z M 5.703125 -5.9375 "/></g></g></g><g fill="#a6a6a6" fill-opacity="1"><g transform="translate(206.873003, 196.999996)"><g><path d="M 6.984375 0 L 5.8125 0 L 5.8125 -2.90625 L 2.09375 -2.90625 L 2.09375 0 L 0.921875 0 L 0.921875 -7 L 2.09375 -7 L 2.09375 -3.953125 L 5.8125 -3.953125 L 5.8125 -7 L 6.984375 -7 Z M 6.984375 0 "/></g></g></g><g fill="#a6a6a6" fill-opacity="1"><g transform="translate(222.358861, 196.999996)"><g><path d="M 4.015625 -7.03125 C 4.515625 -7.03125 5 -6.929688 5.46875 -6.734375 C 5.9375 -6.546875 6.34375 -6.285156 6.6875 -5.953125 L 5.984375 -5.09375 C 5.734375 -5.363281 5.429688 -5.578125 5.078125 -5.734375 C 4.734375 -5.898438 4.390625 -5.984375 4.046875 -5.984375 C 3.335938 -5.984375 2.742188 -5.742188 2.265625 -5.265625 C 1.785156 -4.785156 1.546875 -4.203125 1.546875 -3.515625 C 1.546875 -2.828125 1.785156 -2.242188 2.265625 -1.765625 C 2.742188 -1.285156 3.335938 -1.046875 4.046875 -1.046875 C 4.765625 -1.046875 5.410156 -1.320312 5.984375 -1.875 L 6.6875 -1.09375 C 6.332031 -0.738281 5.910156 -0.457031 5.421875 -0.25 C 4.941406 -0.0507812 4.460938 0.046875 3.984375 0.046875 C 2.953125 0.046875 2.085938 -0.289062 1.390625 -0.96875 C 0.691406 -1.65625 0.34375 -2.503906 0.34375 -3.515625 C 0.34375 -4.503906 0.695312 -5.335938 1.40625 -6.015625 C 2.113281 -6.691406 2.984375 -7.03125 4.015625 -7.03125 Z M 4.015625 -7.03125 "/></g></g></g><g fill="#a6a6a6" fill-opacity="1"><g transform="translate(231.826112, 196.999996)"><g><path d="M 5.921875 -5.9375 L 2.09375 -5.9375 L 2.09375 -4.046875 L 5.515625 -4.046875 L 5.515625 -2.984375 L 2.09375 -2.984375 L 2.09375 -1.0625 L 6.046875 -1.0625 L 6.046875 0 L 0.921875 0 L 0.921875 -7 L 5.921875 -7 Z M 5.921875 -5.9375 "/></g></g></g><g fill="#a6a6a6" fill-opacity="1"><g transform="translate(240.883526, 196.999996)"><g><path d="M 6.984375 0 L 5.828125 0 L 2.09375 -5.015625 L 2.09375 0 L 0.921875 0 L 0.921875 -7 L 2.078125 -7 L 5.828125 -1.96875 L 5.828125 -7 L 6.984375 -7 Z M 6.984375 0 "/></g></g></g><g fill="#a6a6a6" fill-opacity="1"><g transform="translate(251.300395, 196.999996)"><g><path d="M 5.703125 -5.9375 L 3.484375 -5.9375 L 3.484375 0 L 2.296875 0 L 2.296875 -5.9375 L 0.09375 -5.9375 L 0.09375 -7 L 5.703125 -7 Z M 5.703125 -5.9375 "/></g></g></g><g fill="#a6a6a6" fill-opacity="1"><g transform="translate(259.588103, 196.999996)"><g><path d="M 5.921875 -5.9375 L 2.09375 -5.9375 L 2.09375 -4.046875 L 5.515625 -4.046875 L 5.515625 -2.984375 L 2.09375 -2.984375 L 2.09375 -1.0625 L 6.046875 -1.0625 L 6.046875 0 L 0.921875 0 L 0.921875 -7 L 5.921875 -7 Z M 5.921875 -5.9375 "/></g></g></g><g fill="#a6a6a6" fill-opacity="1"><g transform="translate(268.645518, 196.999996)"><g><path d="M 5.359375 0 L 4.078125 -2.125 C 4.015625 -2.113281 3.910156 -2.109375 3.765625 -2.109375 L 2.09375 -2.109375 L 2.09375 0 L 0.921875 0 L 0.921875 -7 L 3.765625 -7 C 4.648438 -7 5.335938 -6.789062 5.828125 -6.375 C 6.328125 -5.957031 6.578125 -5.367188 6.578125 -4.609375 C 6.578125 -4.046875 6.453125 -3.570312 6.203125 -3.1875 C 5.953125 -2.800781 5.59375 -2.519531 5.125 -2.34375 L 6.703125 0 Z M 2.09375 -3.171875 L 3.765625 -3.171875 C 4.890625 -3.171875 5.453125 -3.640625 5.453125 -4.578125 C 5.453125 -5.484375 4.890625 -5.9375 3.765625 -5.9375 L 2.09375 -5.9375 Z M 2.09375 -3.171875 "/></g></g></g></svg>